<svg width="434" height="181" viewBox="0 0 434 181" fill="none" xmlns="http://www.w3.org/2000/svg">
<path d="M406.906 66.0037C408.982 68.4577 411.048 70.3093 410.35 69.2913C414.393 74.5033 414.788 74.263 414.831 75.486C417.344 78.925 420.645 81.8858 417.708 78.0642L425.368 87.5066L420.519 82.1671C420.954 83.1509 422.891 85.2838 424.846 87.4577C425.824 88.544 426.805 89.6407 427.606 90.6097L428.169 91.3101L428.202 91.3522L428.218 91.3739L428.226 91.3841L428.23 91.3898L428.233 91.3921C428.769 90.604 427.034 93.1617 429.436 89.6247L427.832 90.8375L427.831 90.8386C427.829 90.8364 427.831 90.842 427.839 90.8591L427.908 91.0163C427.961 91.1347 427.993 91.2201 428.014 91.2862C428.124 91.5913 428.125 91.8214 428.129 92.0787L427.998 91.7303C427.951 91.6084 427.896 91.4905 427.834 91.3773L427.691 91.1085L427.627 90.989L427.628 90.989L427.68 90.9502L427.927 90.7658L428.911 90.0244L429.402 89.6498C429.83 89.1237 426.778 93.3872 428.058 91.5891L428.056 91.5868L428.047 91.5765L428.01 91.5344L427.935 91.449L424.982 88.0533L420.686 83.1134L420.975 83.767C419.162 81.354 415.28 77.078 413.888 75.6307C414.028 75.9495 413.78 75.9279 415.289 77.677C404.832 65.8431 413.231 73.6253 404.724 63.6123C405.43 64.4339 406.158 65.2313 406.906 66.0037V66.0037ZM397.001 57.1146L393.902 52.3615L387.663 45.5723C387.78 45.2819 383.486 40.0505 386.658 43.2914C387.218 43.9951 388.325 45.3821 389.281 46.432C389.002 45.1999 381.369 36.9656 383.567 38.5451C388.286 44.1602 389.115 44.9027 391.758 48.6549C396.218 53.6494 399.531 57.2125 401.742 59.3967C402.994 60.9613 402.932 61.4521 404.552 63.4073L403.435 62.1001L402.652 62.5818C401.387 60.8531 400.012 59.424 398.481 57.6521L404.918 66.5867C402.051 64.6076 395.366 56.2401 392.328 53.3146C396.313 56.6944 389.812 49.8733 397.001 57.1146V57.1146ZM404.553 63.4073L404.727 63.6089L404.553 63.4073ZM93.469 100.901C95.616 100.918 96.249 101.148 96.559 101.263L84.472 101.252L82.216 101.251C80.1258 101.248 78.0365 101.152 75.953 100.962C73.613 100.748 72.063 100.498 72.063 100.498C72.466 100.434 74.463 100.559 75.76 100.54C77.059 100.519 77.653 100.461 75.277 100.17C76.349 100.142 78.495 100.3 80.498 100.413C82.523 100.525 84.296 100.644 84.764 100.824L83.012 100.435C88.582 100.934 92.387 99.9532 88.755 99.6583L89.225 99.6639L104.652 101.583C98.986 101.697 100.289 100.923 93.469 100.901V100.901ZM410.235 121.655C407.965 124.115 407.635 124.36 407.829 124.006C408.613 123.199 409.415 122.415 410.235 121.655ZM108.257 102.035L113.089 102.634C111.154 102.473 109.454 102.258 108.257 102.035ZM75.238 92.5138C75.231 92.4807 75.185 92.4477 75.307 92.4181L76.31 92.6743L77.318 92.9146L77.266 92.91C76.5872 92.7968 75.911 92.6647 75.238 92.5138V92.5138ZM217.952 104.291L219.537 104.333C219.009 104.327 218.48 104.313 217.952 104.291V104.291ZM26.165 56.3027C26.165 56.3027 27.451 58.6428 28.897 60.8725C29.8604 62.3627 30.8672 63.8158 31.916 65.2294C31.187 63.9858 34.397 67.8781 33.17 65.9832C33.639 66.6357 36.093 69.4279 35.326 68.7868L33.905 67.2108C35.5 69.5327 35.745 70.1055 36.295 71.0062C36.871 71.8785 37.712 73.1539 41.05 76.3299C36.455 73.0548 34.973 70.7944 33.148 68.3097L31.404 66.1301C31.404 66.1301 30.163 64.2421 29.041 62.2834C27.906 60.3316 26.896 58.3126 26.896 58.3126L26.165 56.3027V56.3027ZM398.087 120.769L398.209 120.718C398.119 120.789 398.093 120.79 398.087 120.769ZM398.699 120.52L398.209 120.718C398.696 120.344 400.336 118.648 398.699 120.52ZM106.481 101.519C106.628 101.666 107.248 101.847 108.256 102.035L104.65 101.584L106.481 101.519V101.519Z" fill="#A19882"/>
<path d="M98.278 99.779L89.223 99.6652L85.885 99.2529C89.351 99.4089 93.403 99.516 98.278 99.779V99.779ZM203.65 104.758C222.405 104.879 199.043 103.822 207.66 103.595C212.868 103.707 214.705 104.151 217.952 104.291C203.076 103.91 219.968 105.756 204.965 105.521C207.099 106.326 215.785 106.397 220.875 106.179C226.638 105.403 215.84 105.612 214.535 104.851C220.556 104.977 219.495 105.117 222.05 105.551C231.503 105.371 241.609 106.503 247.253 105.429C254.096 105.6 253.646 105.972 257.58 106.379C258.363 107.21 247.403 106.815 244.868 107.469C245.393 107.4 246.418 107.259 246.121 107.142L240.205 107.318C245.82 107.028 239.425 106.487 236.423 106.422C234.24 106.405 229.901 106.368 230.498 106.597L233.803 106.777C229.548 107.037 224.415 106.17 219.922 106.619C219.688 106.805 221.388 106.894 221.646 107.01C216.611 106.443 211.755 106.476 204.303 106.074L208.623 106.898C202.662 105.987 189.163 106.246 179.808 106.728C180.846 106.589 182.715 106.491 181.593 106.33C176.098 106.134 171.947 106.699 174.492 107.133C169.124 106.45 154.04 107.707 146.724 106.82L113.089 102.635C114.42 102.749 115.753 102.824 117.087 102.86C120.144 102.137 121.792 102.226 116.434 101.544C121.694 101.927 119.684 102.507 127.587 102.538C124.487 102.174 123.704 101.344 131.274 101.259C150.199 101.981 162.742 104.036 180.418 105.087C181.07 104.529 194.948 104.685 201.692 104.555C199.118 103.957 194.112 103.785 188.918 103.666C192.178 103.645 197.79 103.61 201.954 103.586L203.65 104.758V104.758Z" fill="#A19882"/>
<path d="M159.704 102.887C160.177 102.835 160.666 102.809 161.169 102.782C160.901 102.83 160.464 102.865 159.704 102.887ZM187.335 103.684C187.27 103.661 187.293 103.646 187.27 103.622C187.815 103.637 188.36 103.65 188.918 103.666L187.335 103.684V103.684ZM110.916 100.261L107.839 99.8986L110.234 100.043C111.03 100.118 111.409 100.193 110.916 100.261ZM107.131 101.241L107.732 101.47C107.249 101.488 106.91 101.501 106.482 101.519C106.351 101.395 106.491 101.292 107.131 101.241ZM275.321 99.722L277.119 99.8416C276.036 99.8336 275.569 99.7847 275.321 99.722Z" fill="#A19882"/>
<path d="M224.543 103.812C218.02 103.759 223.763 102.981 214.535 102.978L217.243 102.928C210.622 102.571 198.987 102.734 191.119 102.705C192.006 103.037 186.348 103.109 187.268 103.623C181.891 103.503 176.565 103.389 173.795 102.857C170.463 103.03 165.402 102.563 161.167 102.784C162.955 102.473 155.137 101.732 165.445 102.112C164.613 102.07 165.135 101.998 164.313 101.954C170.953 101.52 173.616 102.257 179.336 102.266C182.755 101.96 173.743 101.771 176.97 101.648C184.113 101.933 199.384 101.277 198.91 102.433C204.108 102.513 204.826 102.26 206.376 102.048C214.599 103.278 236.892 101.519 236.816 103.094C233.814 103.031 228.922 103.065 224.517 102.727L224.543 103.812V103.812ZM38.609 90.5881L39.626 91.9067L40.671 93.2095C46.3249 97.0636 52.3934 100.068 58.725 102.146C64.017 103.842 69.178 105.065 76.554 105.706C77.689 105.651 75.905 105.434 75.005 105.294C76.296 105.437 77.669 105.549 79.099 105.616C80.5 105.688 82.089 105.697 83.428 105.695L91.933 105.707C97.566 105.728 102.875 105.791 106.35 106.027C109.388 106.02 117.363 105.694 114.344 105.391C115.822 105.481 117.512 105.568 119.213 105.535C119.663 105.166 115.408 105.431 115.31 105.129C116.658 105.104 117.183 105.031 117.493 105.149C115.225 104.832 119.846 103.894 109.27 103.917C105.175 104.783 116.605 104.017 114.187 104.972C110.68 104.978 111.087 104.609 110.787 104.492C106.317 104.514 106.434 104.753 106.672 104.972C104.959 104.676 99.337 105.088 96.971 104.638C88.279 104.565 97.444 105.354 91.766 105.343L88.494 104.377L83.774 104.468L82.026 104.499L80.405 104.506L78.822 104.477C75.161 104.202 73.488 103.785 72.76 103.521C72.034 103.238 72.254 103.053 72.406 102.85C72.559 102.646 72.643 102.436 71.678 102.084C70.716 101.715 68.691 101.274 64.718 100.138C66.765 101.108 60.037 100.65 52.718 97.5743C54.869 98.557 57.945 99.9611 61.288 101.096C64.624 102.249 68.222 103.118 71.22 103.427C66.977 103.064 69.846 103.672 73.267 104.154C76.682 104.64 80.643 104.789 78.414 105.129C76.31 104.818 73.515 104.45 70.58 103.93C67.6664 103.417 64.7676 102.801 61.888 102.081L63.618 102.654C60.761 101.945 58.34 100.914 55.714 99.6912C53.089 98.4557 50.254 97.0414 46.572 95.2285C43.024 93.1708 43.595 93.7458 44.117 94.3403C41.172 92.426 38.718 90.4116 38.609 90.5881V90.5881ZM46.136 95.5963C46.136 95.5963 47.348 96.2488 48.579 96.8512C49.3993 97.2543 50.2254 97.642 51.057 98.0138C49.828 97.6119 47.988 96.7009 46.136 95.5963V95.5963ZM354.232 11.2629C354.217 11.1282 354.218 10.9919 354.235 10.8575C354.244 10.9543 354.229 11.1023 354.232 11.2629ZM66.059 89.4072L67.554 89.7727L69.055 90.1018C68.0491 89.9126 67.0498 89.6808 66.059 89.4072V89.4072ZM131.406 94.7331L135.606 94.9586C134.204 94.9495 132.803 94.8742 131.406 94.7331V94.7331ZM375.89 36.428L375.994 36.5362L376.431 37.1056L375.89 36.428ZM260.81 92.475C261.45 92.3941 262.167 92.3201 263.149 92.262C263.031 92.3588 262.157 92.4271 260.81 92.475ZM130.632 94.691L130.887 94.6728C131.05 94.6933 131.23 94.7126 131.406 94.7331L130.632 94.691ZM37.499 76.8456C36.9822 76.3511 36.4735 75.8458 35.973 75.33C36.4885 75.8261 36.9973 76.3314 37.499 76.8456V76.8456ZM42.456 77.587C41.9418 77.1635 41.4399 76.7211 40.951 76.2603L42.456 77.587ZM14.17 31.4654L14.582 33.4434L15.039 35.4112C14.526 33.4969 14.306 32.3274 14.17 31.4654ZM33.597 70.2705C33.449 70.0496 33.298 69.831 33.209 69.6715C33.605 70.1441 33.772 70.3958 33.597 70.2705ZM367.173 18.9016L367.009 18.7103L367.01 18.552L367.173 18.9016V18.9016ZM372.954 27.4729L375.308 30.2674C374.502 29.3598 373.717 28.4279 372.954 27.4729V27.4729ZM317.027 90.9228C318.051 90.7828 320.456 90.6154 319.334 90.4571C321.295 90.6586 321.164 91.1472 317.027 90.9228ZM352.067 1.83972C352.65 1.65148 353.246 1.52191 353.849 1.45254C354.175 1.41491 354.502 1.39743 354.829 1.40016C355.135 1.40016 355.558 1.42976 355.751 1.46734L355.45 1.4309L354.915 1.41724C354.16 1.42098 353.408 1.52958 352.676 1.74065C351.946 1.95701 351.637 2.08911 352.067 1.83972V1.83972ZM355.752 1.46621C356.148 1.50607 356.443 1.56187 356.745 1.63589C357.05 1.70877 357.35 1.80215 357.641 1.91374C358.223 2.13352 358.766 2.42276 359.229 2.73705C358.435 2.22124 357.575 1.84828 356.681 1.63133C356.374 1.55572 356.064 1.50058 355.752 1.46621V1.46621ZM290.959 82.9129C290.705 82.9789 290.31 83.0325 289.774 83.0507C289.932 82.9197 290.358 82.8912 290.959 82.9129Z" fill="#A19882"/>
<path d="M377.348 32.3695C377.636 33.0232 387.781 45.2818 378.914 35.3519C378.809 36.2447 384.35 42.0102 386.583 44.8047C384.776 42.9838 387.145 46.0937 386.469 45.6861C385.361 44.3002 384.106 42.5807 382.153 40.4285C381.066 39.653 383.844 43.1318 386.197 45.6382C383.157 42.7105 389.405 50.0942 385.255 45.7772C376.923 35.9327 371.086 28.9168 365.767 21.3806C370.498 27.0117 375.779 33.3272 379.926 37.6419L378.642 35.3041C373.819 30.5817 371.303 27.1416 366.855 22.1584L376.969 33.2099C381.932 38.1316 378.9 34.5115 375.31 30.2651C376.213 31.2854 377.051 32.1873 377.348 32.3695ZM374.046 20.9228L374.223 21.0993C374.355 21.2804 374.526 21.4956 374.602 21.6198L374.046 20.9228V20.9228ZM3.32701 33.777L3.45001 35.2551C3.26101 34.0447 3.25401 33.6586 3.32701 33.777ZM366.272 16.3132L366.279 16.3212C366.277 16.3185 366.274 16.3158 366.272 16.3132V16.3132ZM17.427 2.39998C17.369 2.3271 17.312 2.25081 17.202 2.12897C17.364 2.2975 17.353 2.3123 17.427 2.39998ZM9.51501 15.8076C9.48601 15.7393 9.46101 15.7211 9.42901 15.5594C9.42901 14.7577 9.46601 15.1448 9.51501 15.8076ZM17.43 2.47742C17.44 2.46262 17.482 2.47741 17.427 2.39998C17.452 2.44781 17.52 2.54119 17.43 2.47742ZM119.447 83.2488C119.447 83.2488 118.987 83.3559 118.262 83.4583C117.982 83.4003 118.263 83.3331 119.447 83.2488ZM90.697 84.1655L90.172 84.2338L90.697 84.1655ZM310.227 93.7127C308.805 93.7219 307.738 93.7059 306.837 93.6797C307.967 93.6603 309.097 93.6713 310.227 93.7127V93.7127ZM17.202 2.12897C16.75 1.6655 16.073 0.999323 14.733 0.304687C16.208 1.07448 16.833 1.75432 17.202 2.12897ZM163.282 86.3781L162.398 86.3098L162.923 86.279L163.282 86.3781V86.3781Z" fill="#A19882"/>
<path d="M178.285 85.9215C177.773 85.8509 177.538 85.778 177.251 85.7142C182.605 85.9716 192.443 85.6914 193.608 86.3508C191.791 86.3348 182.37 86.722 183.976 87.1081C180.243 86.9429 174.726 87.4053 172.716 87.2971C178.844 86.9372 173.378 86.7414 169.241 86.5182C165.479 86.7106 169.949 87.0488 166.709 87.1707L158.003 87.0978L165.586 87.0113L163.282 86.377L164.055 86.4373C176.885 86.7334 165.145 85.5104 178.285 85.9215V85.9215Z" fill="#A19882"/>
<path d="M177.251 85.7154C176.564 85.6869 175.879 85.6348 175.195 85.5594C176.406 85.5697 176.876 85.6346 177.251 85.7154ZM229.667 84.67L231.938 84.7702L229.667 84.67ZM79.413 99.2973C79.297 99.3884 77.338 99.4487 75.427 99.3132C73.516 99.1857 71.665 98.8645 71.763 98.6334C74 98.9352 76.263 99.1151 78.537 99.1857L79.413 99.2973V99.2973ZM372.455 87.5021L369.953 87.5146L369.467 87.4395C369.976 87.3677 371.623 87.4565 372.455 87.5021ZM186.286 87.3381C184.915 87.2641 184.305 87.1867 183.975 87.1092C184.863 87.148 185.682 87.2106 186.286 87.3381ZM372.925 86.344C373.986 86.2051 375.549 85.9921 375.771 85.8065C377.941 85.8019 379.464 86.0582 381.673 86.1493C379.181 86.0775 376.296 86.1265 372.925 86.344V86.344ZM381.853 86.1584L381.673 86.1493L381.853 86.1584Z" fill="#A19882"/>
<path d="M83.898 99.1504C84.541 99.1823 85.203 99.2176 85.885 99.2529L84.85 99.1219L89.993 98.975L92.111 99.0524C91.8578 99.0434 91.6063 99.0025 91.361 98.9306L93.009 98.8725C97.104 99.377 107.294 99.7471 110.234 100.042C114.124 100.257 118.884 100.38 121.87 100.343C119.103 100.352 115.429 100.252 116.532 99.9714C122.151 99.6821 124.882 98.8452 134.58 99.5649L128.892 99.5535L141.68 100.635C146.16 100.187 135.298 100.096 133.523 99.7049C143.468 100.239 151.74 98.8133 156.351 99.7516C157 99.1959 158.09 98.2678 164.616 98.3225C159.911 98.9579 168.529 98.7302 164.668 99.4089C166.923 99.7266 171.948 99.2084 172.323 99.6241L171.713 99.3929C182.856 98.5138 186.504 99.8928 191.271 100.347C204.613 100.574 210.741 100.214 221.623 100.307C222.051 99.935 225.014 98.9101 229.38 98.9488C231.409 99.4533 241.257 99.6867 242.262 100.332C234.457 100.601 235.876 99.7915 231.203 99.6412C227.313 100.318 230.85 100.311 225.539 100.715C229.826 100.451 244.911 101.067 249.606 100.433L247.949 100.344C255.444 99.9566 256.877 98.3601 269.364 99.3269L275.322 99.7231C275.035 99.6582 275.003 99.5831 274.848 99.525C284.602 99.4567 281.939 98.7222 292.706 99.3029C291.874 99.2585 292.396 99.1868 291.552 99.1424C297.69 98.7803 303.879 99.5091 308.519 99.6605C311.352 99.1219 307.847 99.131 306.095 98.7415C316.892 98.532 328.544 99.4567 335.249 100.114L342.209 99.7983C338.081 99.5763 333.037 99.008 334.296 98.6823C338.124 98.7916 337.383 99.0445 342.797 98.9431C341.873 98.5981 339.602 98.2769 337.057 97.8442C348.252 97.268 339.56 99.0649 347.394 98.0093C350.912 98.0014 352.955 98.5058 353.339 98.9215L359.712 98.376C360.42 98.9055 368.287 98.9363 373.442 99.0171C374.072 99.2437 369.292 99.5819 367.337 99.3769C367.723 99.7926 373.207 99.9885 376.734 99.9794C377.38 99.4248 383.154 99.4646 388.246 99.4806C390.791 99.4885 393.166 99.4897 394.643 99.4077C395.935 99.3257 396.506 99.1594 395.592 98.8326L412.408 99.1549L401.657 111.033L396.775 116.369L392.532 120.922C390.284 123.916 385.324 129.586 388.627 126.563C379.611 136.837 374.252 141.328 365.488 151.737C364.834 152.678 369.541 147.136 369.453 147.76C366.39 150.935 363.801 154.048 360.82 157.635C359.33 159.428 357.742 161.34 355.947 163.436L353.088 166.728L351.516 168.493C351.265 168.772 350.928 169.133 350.645 169.553C350.358 169.975 350.115 170.433 349.922 170.919C350.264 170.012 350.813 169.226 351.513 168.645C351.741 168.44 351.988 168.263 352.248 168.116C352.259 168.039 352.018 168.247 351.61 168.645L351.273 168.978C351.136 169.12 350.994 169.28 350.851 169.461C350.536 169.866 350.266 170.314 350.048 170.795C349.537 171.942 349.325 173.233 349.439 174.514C349.549 175.844 350.039 177.101 350.663 178.018C350.885 178.298 350.969 178.37 351.02 178.42C351.07 178.463 351.067 178.445 351.029 178.386C350.976 178.301 350.666 177.896 350.444 177.491C349.959 176.658 349.697 175.572 349.973 176.206C350.336 177.135 350.88 177.957 351.563 178.61C352.247 179.263 353.053 179.729 353.919 179.974C354.755 180.209 355.626 180.229 356.47 180.034C357.314 179.839 358.109 179.432 358.798 178.844C359.511 178.203 359.917 177.627 360.461 177.042L361.997 175.301C363.011 174.162 364.025 173.024 365.039 171.886C368.987 167.492 372.962 163.131 376.966 158.804C384.867 150.237 392.795 141.725 401.501 131.775C396.528 137.458 394.188 139.082 393.948 138.929L398.82 133.363C400.928 131.482 404.591 127.308 407.827 124.013C408.117 123.487 409.515 121.684 407.887 123.293C412.476 117.541 416.449 113.492 420.721 109.166C422.858 107.003 425.069 104.77 427.47 102.22C428.67 100.945 429.917 99.591 431.227 98.1266L431.721 97.5732L431.737 97.555L431.968 97.2327L431.98 97.2133L432.015 97.1496L432.071 97.0505L432.172 96.8683L432.367 96.5062L432.583 96.0826L432.788 95.6362L432.912 95.323L432.992 95.0531L433.017 94.9597L433.127 94.5441C433.525 93.0262 433.442 91.359 432.978 90.0062C432.978 90.0062 432.994 90.078 433.021 90.2135L433.096 90.5528L433.159 90.8648L433.185 91.0197L433.19 91.0744L433.201 91.1882C433.243 91.5674 433.275 92.171 433.23 92.7028L433.186 93.1651L433.112 93.6388C433.068 93.9201 432.929 94.4166 432.855 94.617L432.728 94.9962C432.579 95.4585 432.531 95.4802 432.441 95.6783C432.295 95.9584 432.106 96.2887 431.954 96.529L431.695 96.9434L431.674 96.9788L431.661 96.9993L431.478 97.2543L431.473 97.2589L431.433 97.2988L431.354 97.3773L431.194 97.5379L430.537 98.1961L427.742 100.994L420.129 108.613L423.347 104.219L416.639 110.903C420.142 106.338 423.993 103.283 424.099 102.373C423.208 103.167 421.327 105.38 421.079 105.236C424.55 100.975 425.092 100.945 427.87 97.9353C420.022 105.267 406.028 121.228 398.317 129.615C397.076 130.903 399.503 128.652 399.784 128.496C396.685 131.971 395.059 134.323 391.065 138.592C388.363 140.991 392.68 136.254 394.557 134.046C394.036 134.051 393.091 135.161 390.927 137.536C390.811 138.455 379.383 150.96 377.066 154.558C365.604 167.364 377.989 151.472 367.054 164.265L364.138 168.485L358.786 174.085L357.375 175.58C357.334 175.621 357.216 175.752 357.238 175.721C357.184 175.773 357.1 175.863 357.071 175.886L356.899 176.017C356.54 176.277 356.131 176.433 355.707 176.471C355.283 176.509 354.858 176.427 354.468 176.234C354.167 176.083 353.895 175.864 353.668 175.592C353.442 175.32 353.265 175 353.147 174.649C353.035 174.307 352.983 173.944 352.995 173.579C353.006 173.214 353.081 172.855 353.214 172.523C353.313 172.282 353.443 172.058 353.599 171.859C353.671 171.769 353.746 171.682 353.823 171.597L355.24 169.993C356.172 168.921 357.093 167.859 357.998 166.817L356.451 168.549C355.26 169.522 356.845 167.48 357.506 166.53C362.839 160.071 368.263 154.985 371.202 150.739C377.897 144.072 388.671 132.509 396.063 124.584C397.478 121.786 386.26 134.741 382.95 137.77L389.484 130.334C385.439 134.924 383.647 136.515 380.93 138.934C386.557 132.305 388.896 130.68 394.454 124.65C393.891 124.969 394.527 124.046 397.026 121.19L398.083 120.775C398.102 120.691 398.352 120.345 399.103 119.439L411.067 106.297C408.68 109.351 409.042 109.626 405.555 113.606C406.038 112.824 405.523 113.274 404.489 114.374C403.856 115.068 403.223 115.763 402.59 116.458L400.824 118.456C403.237 116.222 398.58 121.445 398.819 121.597L408.289 110.875C411.487 107.268 414.705 103.684 417.942 100.122L418.255 99.402L418.538 98.7165L422.137 94.5692L411.106 94.5043C407.64 94.4781 404.436 94.4667 401.808 94.5282L403.621 94.7992L395.412 94.847L389.308 94.8345C385.407 94.8334 381.618 94.8766 378.026 95.126C370.808 94.5407 361.72 94.0522 355.821 93.4407C352.666 92.7779 334.641 94.2708 326.503 93.3382C325.955 93.4099 332.093 93.837 334.87 94.0875C329.456 94.19 325.152 93.3667 323.456 94.0636C335.603 93.8301 322.803 94.6193 328.275 94.8174C322.587 94.8037 316.59 94.6796 313.8 94.4302C323.005 94.4348 310.53 93.4669 319.85 93.7698C312.628 93.1845 302.775 92.951 294.17 93.1776C294.254 93.4782 293.194 93.6183 289.986 93.7424L287.398 93.3063C283.372 93.3837 295.184 93.8222 287.079 93.977C278.739 93.2312 261.964 94.4006 258.312 93.0216C251.956 93.5659 270.408 93.5739 260.828 94.2412C266.401 94.74 274.089 94.1683 275.926 94.8573C270.464 94.6603 273.933 95.4392 270.408 95.446L264.316 95.0213L265.664 94.9962C255.441 94.346 239.244 94.658 226.188 94.5464C215.13 93.8529 207.517 92.8508 194.253 92.9271C198.169 93.3336 183.237 93.3188 191.587 94.0647C185.449 94.4234 179.39 93.9975 179.269 93.698C184.669 93.5955 181.168 93.6024 185.717 93.4532C182.647 93.0888 175.569 93.1059 172.662 93.3439C174.01 93.3177 173.497 93.386 173.794 93.5022C167.346 93.747 170.704 93.14 166.044 92.9863C164.566 93.4976 155.756 93.1241 151.501 93.386L145.331 92.6595C148.721 93.1366 139.418 92.8337 138.446 93.2755C134.022 92.9385 130.312 92.3452 123.573 92.4739C126.356 92.7233 117.426 92.8337 117.308 93.32C105.77 93.7846 98.2 91.9956 87.272 92.6914C87.611 92.8052 89.817 93.1241 86.623 93.2459C85.374 93.1765 83.614 93.1617 81.903 93.1469C80.25 93.131 78.578 93.0501 77.315 92.9225L77.394 92.943L77.263 92.9191C76.025 92.7973 75.254 92.6424 75.234 92.5229C73.101 92.0412 71.512 91.5447 69.438 90.8853C67.37 90.2044 64.801 89.3959 60.861 87.7709C61.228 87.616 63.071 88.1967 65.22 88.8128C67.2449 89.4013 69.2811 89.9381 71.327 90.423L72.6 90.9138L73.886 91.3773C75.189 91.1358 77.058 91.367 78.87 91.5674C80.689 91.777 82.391 91.9421 83.486 91.7997C82.059 91.556 80.314 91.3966 78.103 91.1211C75.921 90.8523 73.403 90.4799 70.802 89.9197C65.594 88.8344 60.096 86.845 56.24 84.7042C58.782 85.4683 62.726 86.8394 67.324 87.8733C71.914 88.9358 77.157 89.6054 82.072 89.6521C82.072 89.6521 80.99 89.7352 79.905 89.7739C78.82 89.8172 77.732 89.8206 77.732 89.8206C77.732 89.8206 79.019 89.9197 80.308 89.9607L82.082 89.9948L82.955 89.9971L80.384 90.2636C79.128 90.3786 77.864 90.4321 77.864 90.4321C79.093 90.4936 80.282 90.5312 81.443 90.5449L85.102 90.5688L92.369 90.6018C86.665 90.5904 84.443 91.3568 87.67 91.2361C94.026 90.6906 94.294 91.5925 99.152 91.5583C96.447 91.6084 92.929 91.6187 95.197 91.9364C104.777 91.2691 107.365 91.7041 116.077 90.9912C114.997 91.917 126.962 91.0835 128.267 91.843L124.225 91.9205L132.8 92.4807C140.713 91.7257 125.794 91.7121 137.835 91.178C148.945 91.0846 148.658 92.0571 157.393 92.13C154.515 91.5811 147.588 91.1097 140.54 91.1256L144.808 90.8614C142.55 90.5437 132.801 90.6098 127.935 90.6428C135.975 91.2725 124.173 90.8364 120.515 91.3294C119.843 90.7976 125.005 90.8808 118.91 90.4549C124.62 90.4651 125.455 90.5095 132.719 90.3091C117.017 90.5505 118.6 88.4666 104.895 88.9119C111.212 89.1522 102.692 89.6783 101.932 89.9356C98.959 89.8718 92.93 89.7455 90.45 89.6122L92.695 88.8447C88.703 88.6796 86.013 89.003 83.17 89.2683L82.108 89.3628L81.11 89.4357C80.431 89.4733 79.722 89.4892 78.964 89.4653C77.195 89.4084 75.4343 89.1667 73.704 88.7434C73.197 88.437 75 88.675 76.758 88.8367C78.515 89.0064 80.228 89.1134 79.487 89.0394C73.854 88.5065 70.072 87.9007 66.41 87.2687C62.764 86.5877 59.218 85.8578 54.435 83.816C54.002 83.3206 54.238 82.9984 51.248 80.8541C52.066 81.8209 49.601 80.7311 53.074 83.0166C49.899 81.5738 46.52 78.982 44.129 76.9357C47.161 79.0036 46.635 78.3864 45.222 77.1919C43.811 75.9848 41.636 73.9897 41.205 73.4272C38.3 70.9641 41.798 74.6069 43.615 76.126C41.135 74.3826 38.024 72.3932 37.165 70.6111C36.985 70.7432 38.332 72.5458 40.401 74.6662C42.458 76.7968 45.27 79.179 47.652 80.7778C47.652 80.7778 46.833 80.2722 46.028 79.737L44.428 78.6472C46.492 80.4032 46.929 80.6685 50.233 82.5747C46.874 80.9748 47.018 81.4599 47.61 82.2627C48.062 82.4654 47.424 82.0145 47.857 82.2069C50.546 83.767 52.613 84.9525 51.88 84.8568C52.996 85.8031 52 85.4114 50.487 84.6325C48.974 83.8581 46.987 82.6328 46.026 82.1682C44.7033 81.2384 43.4076 80.2597 42.141 79.2337C42.141 79.2337 39.091 76.2866 36.418 72.9842C33.709 69.7126 31.401 66.1369 31.401 66.1369C29.213 63.3185 27.676 61.238 26.256 59.3329C24.847 57.4198 23.564 55.673 22.132 53.3374L21.847 51.717C18.868 46.1257 16.767 40.3705 17.644 44.5508C17.882 44.6897 18.157 45.504 18.734 46.7805C18.747 46.9843 18.834 47.3043 18.966 47.6972C18.995 47.8361 19 47.9181 19.02 48.0342C16.339 41.6174 15.345 37.322 15.22 36.9485C15.898 39.8535 16.303 41.3384 16.391 42.0023C16.492 42.6628 16.303 42.4954 16.004 42.0342C15.402 41.1175 14.428 38.9744 14.334 40.1063C14.334 40.1063 13.437 37.1695 12.759 34.1666C12.3018 32.1685 11.9109 30.1514 11.587 28.1198C13.35 35.3418 11.945 28.1574 11.704 25.5337C11.407 25.2251 11.023 22.7768 10.814 19.8559C10.588 16.9362 10.582 13.5586 10.553 11.3996L10.454 11.7184L10.445 11.5283L10.441 11.4326L10.439 11.3836L10.438 11.3597L10.438 11.3392L10.437 11.4633C10.435 11.3586 10.435 11.0807 10.432 11.214C10.422 11.2857 10.424 11.2447 10.419 11.2288L10.418 11.1753C10.4178 11.0951 10.4349 11.016 10.468 10.9452C10.5068 10.8601 10.5618 10.7857 10.6289 10.7277C10.696 10.6696 10.7735 10.6291 10.856 10.6093C11.234 10.5022 11.556 10.9042 11.523 11.1923C11.482 11.1969 11.412 11.2584 11.31 11.3108L11.269 11.3313L11.26 11.3358C11.257 11.4064 11.253 11.395 11.25 11.4292L11.229 11.5727L11.141 12.2001L10.968 13.7898C10.735 16.0297 10.606 18.7752 10.546 20.5733C10.01 15.6619 9.993 14.645 9.859 14.7862C9.751 14.9229 9.683 16.2063 9.514 15.8168C9.581 16.8474 9.723 18.6978 9.681 18.9199C9.654 20.3615 9.345 17.0034 9.182 16.7301C9.13598 15.3862 9.11531 14.0415 9.12 12.6966L9.13 11.7503L9.133 11.526L9.135 11.4133L10.903 11.3358L10.973 11.3324C11.046 11.3233 11.045 11.3165 11.03 11.3244C10.983 11.3461 10.962 11.3882 10.996 11.3358C11.029 11.2755 11.006 11.2641 11.001 11.4451C10.989 11.2197 10.98 11.3051 11.004 11.3324C11.028 11.3757 11.032 11.3654 11.003 11.3438C10.975 11.321 10.939 11.3153 10.986 11.3267C10.994 11.3108 11.009 11.37 11.034 11.2937C11.048 11.2686 11.057 11.1889 11.066 11.2071L11.101 11.4315L11.105 11.4588L11.107 11.4725L11.108 11.4793L11.108 11.4827C13.109 11.1889 11.663 11.403 12.109 11.3392L12.102 11.3882L12.088 11.4861L12.059 11.6763L11.998 12.0327L11.948 11.5294L11.938 11.4064L11.934 11.3449L11.934 11.3381C12.114 11.3051 10.37 11.616 11.108 11.4827L11.108 11.477L11.105 11.4599L11.1 11.4269C11.087 11.3563 11.072 11.2117 11.06 11.2026C11.0509 11.2463 11.0375 11.2887 11.02 11.329C11.013 11.3335 11.005 11.329 10.996 11.329L10.97 11.3233C10.952 11.3176 10.984 11.329 11.006 11.3461C11.062 11.4132 10.98 11.296 10.991 11.3005C10.973 11.2709 11.047 11.403 11.018 11.3552C11.0019 11.3409 10.9841 11.3293 10.965 11.321C10.969 11.3028 10.982 11.3688 11.036 11.2914L11.057 11.2208C11.06 11.214 11.062 11.1844 11.065 11.1969L11.076 11.2686L11.098 11.4133L11.104 11.4497L11.106 11.4679L11.107 11.477L11.108 11.4816C10.971 11.5146 12.298 11.2049 11.736 11.3381L11.736 11.4053L11.732 11.9473C11.717 14.8591 11.899 18.1444 12.327 21.8214L12.677 22.992L13.042 24.1536C13.042 24.1536 13.243 25.9961 13.53 27.8272C13.806 29.6594 14.168 31.4757 14.168 31.4757C13.937 29.9395 14.035 29.5968 14.004 28.6915C13.988 27.7828 13.787 26.324 13.331 22.4944C13.585 22.9522 13.796 24.8471 14.162 27.1917C14.522 29.5364 15.058 32.3298 15.737 34.5674L15.797 35.8166L15.877 37.0692C15.886 36.5705 16.626 38.7261 17.217 40.0938C17.816 41.4614 18.131 42.0911 17.197 38.6601C17.197 38.6601 16.403 35.8827 15.815 33.0529C15.204 30.2276 14.807 27.3614 14.807 27.3614L15.29 28.8862L15.802 30.395C15.802 30.395 15.298 28.0264 14.94 25.6271C14.568 23.23 14.343 20.8091 14.343 20.8091L14.332 21.9695L14.336 23.1321C13.924 19.2353 13.809 16.9897 13.657 15.5788C13.521 14.1668 13.383 13.5871 13.253 13.0018C13.19 12.7092 13.124 12.4142 13.076 12.0122C13.0642 11.9044 13.0522 11.7966 13.04 11.6888L13.024 11.5089L13.016 11.4144L13.012 11.3654L13.01 11.3415C13.424 11.3085 9.406 11.6182 11.106 11.485L11.106 11.4816L11.105 11.4747L11.103 11.4611L11.067 11.2299C11.055 11.1582 11.048 11.28 11.032 11.2971C11.005 11.3745 10.99 11.3142 10.979 11.3301C10.921 11.3108 11.01 11.3449 11.021 11.3666C11.027 11.3745 11.003 11.3449 10.99 11.3108C10.983 11.2937 10.986 11.2903 10.991 11.3267L10.999 11.4269L10.999 11.4622C11.116 11.4611 10.839 11.4668 10.873 11.4656L11.048 11.4303C11.072 11.4246 11.119 11.4178 11.124 11.4133L11.08 11.3996C11.0534 11.3907 11.0279 11.3781 11.004 11.362C11.04 11.2037 10.971 11.4098 10.98 11.3643C10.9973 11.3478 11.0169 11.3348 11.038 11.3256C11.04 11.3244 11.024 11.3313 10.971 11.3381L8.308 11.5123L8.296 12.1626C8.26 16.1311 8.517 20.7601 9.544 26.6679C8.96 22.3737 9.134 22.1266 9.308 22.5559C9.504 22.9841 9.815 24.0613 9.809 22.4306C10.467 26.7476 10.985 29.6082 11.371 31.9779C11.77 34.3442 12.056 36.2152 12.581 38.4312C13.064 39.431 13.508 40.2634 13.517 39.9377C13.543 39.6041 13.069 38.1408 12.075 34.3977C12.311 33.8136 12.877 36.2926 13.668 38.9152C14.441 41.5445 15.467 44.2992 15.938 44.4461C18.224 50.3163 20.184 54.2359 21.76 57.3845C23.358 60.5195 24.617 62.8699 26.057 65.259C27.51 67.6321 29.147 70.0588 31.797 73.0332C34.461 75.97 38.132 79.5366 43.995 83.3127L43.298 82.4176C50.434 87.7048 56.806 90.5266 63.131 92.483C66.3345 93.449 69.5901 94.1748 72.877 94.6557C75.5337 95.0448 78.2056 95.2838 80.883 95.372L83.619 95.4301L94.782 94.5532C92.286 94.4177 85.574 93.7629 88.706 93.3393C87.349 93.5614 85.97 93.7083 84.575 93.8119L82.47 93.9372C81.7011 93.9716 80.9316 93.9879 80.162 93.9862C77.038 93.9759 73.86 93.6901 70.648 93.3416C70.032 93.0023 72.64 93.3018 73.781 93.2926C71.864 93.0364 70.417 92.877 68.822 92.6219C66.8599 92.3127 64.9225 91.8265 63.028 91.1677C63.306 91.1154 68.758 92.3543 64.707 91.1404C64.707 91.1404 62.998 90.8011 61.302 90.3524C59.604 89.9163 57.924 89.3742 57.924 89.3754C53.587 87.419 52.703 86.4715 51.58 85.6152C50.8627 85.0407 50.1211 84.5063 49.358 84.0141C48.299 83.3081 46.774 82.3755 44.449 80.8108C45.91 82.437 49.214 85.4262 53.089 87.4657C50.784 86.3383 52.271 87.206 53.831 88.0726C55.393 88.9244 57.036 89.7614 54.842 88.9392C51.593 87.0421 49.212 85.6471 46.604 83.9948C44.019 82.3162 41.178 80.3895 37.5 76.8628C38.341 77.7225 38.489 78.0642 40.402 79.6596C40.402 79.6596 37.488 77.4538 34.788 74.9133C32.066 72.4023 29.586 69.5737 29.586 69.5737C30.942 70.8252 28.936 68.444 26.975 65.6347C24.993 62.8391 23.129 59.5823 23.732 59.9945C25.3643 62.4486 27.1028 64.8087 28.941 67.0661C30.0079 68.3843 31.107 69.6682 32.237 70.9162C33.267 72.0436 34.362 73.2051 36.051 74.7834C37.747 76.3492 40.028 78.3671 43.605 80.8621C41.631 79.3566 39.51 77.4083 37.718 75.4633C35.921 73.5228 34.445 71.6029 33.598 70.2877C33.479 70.1932 33.291 70.0246 32.921 69.6295C31.506 67.1823 33.439 69.1136 34.062 68.2812C36.483 71.4628 38.872 73.7335 41.505 75.8971C44.154 78.0471 47.049 80.1139 50.86 82.5611C51.482 83.2409 50.259 82.7911 48.433 81.7651C46.606 80.7459 44.219 79.0856 42.457 77.603C42.457 77.603 44.005 78.9387 45.625 80.1709C46.7058 80.9931 47.8052 81.7833 48.922 82.5406L47.693 81.4611C47.693 81.4611 52.006 84.2214 56.634 86.1812C58.7452 87.0955 60.8937 87.8943 63.072 88.5748C64.855 89.1271 66.058 89.4243 66.058 89.4243C62.436 88.3846 61.328 87.5613 59.57 86.6253C61.961 87.5374 64.405 88.1683 67.016 88.6602C66.365 89.0633 66.618 89.5815 69.054 90.119C72.171 90.7589 74.977 91.0641 77.483 91.1803C79.973 91.3044 82.25 91.1928 84.042 91.0778C87.735 90.8523 90.489 90.5631 92.687 90.2397L94.074 90.2795C92.077 90.8603 102.532 91.3237 106.222 91.9182C106.039 91.3181 112.36 91.5583 115.792 91.2509C117.619 91.9398 115.182 92.8918 111.002 93.4566C102.949 92.8258 106.489 92.8201 102.685 91.925L89.767 91.3283L92.655 91.8783C89.431 91.999 86.271 91.8783 83.976 91.8168C82.839 91.7872 81.896 91.7713 81.219 91.7975C80.563 91.8214 80.243 91.9 80.365 92.0822C82.251 92.3703 84.431 92.3873 86.703 92.4431C88.957 92.4898 91.209 92.5377 92.899 92.7768L88.634 93.0387C96.158 93.7425 92.491 92.3612 101.601 92.852C98.25 93.4612 102.427 92.8952 106.33 93.3029C103.197 93.7276 90.289 93.1298 93.027 94.1638C97.765 94.6147 108.966 92.9522 115.235 93.9805L114.928 93.8632C124.176 93.7299 127.425 94.3187 130.887 94.691C134.822 94.3574 140.255 94.8288 144.519 94.8653L144.415 94.5635L150.432 94.6899C147.567 94.141 143.381 94.7036 138.212 94.6238L138.855 94.0647C132.897 94.7286 128.922 93.7197 124.302 93.2391C131.027 93.722 143.293 93.1013 144.872 94.1934L149.032 93.6308L151.023 93.8336C154.123 93.4111 150.958 92.746 144.947 92.6196C143.903 92.7608 143.381 92.8314 143.697 92.9476C140.907 92.6982 138.346 92.2643 131.595 92.393L135.197 92.6891C126.792 92.729 119.15 92.5137 116.272 91.9637C128.407 91.7303 140.34 91.6813 151.734 91.7064C155.095 92.9692 159.082 93.6775 160.795 94.8516C168.441 95.0668 178.82 95.2297 185.46 94.8003L184.85 94.5692C188.09 94.4496 191.076 94.5111 193.565 94.6443C196.988 94.3369 191.222 94.0237 193.607 93.8575L204.558 94.2515C203.883 93.7197 194.668 93.7174 190.292 93.6798C191.117 93.7254 192.785 93.813 192.25 93.8848C187.16 94.1034 177.678 93.1993 175.452 93.9668C172.973 93.8336 180.49 94.5339 172.095 94.5737C166.473 94.8641 164.642 94.1729 164.055 93.944C163.964 93.6411 172.878 93.5306 169.785 93.1674C174.16 93.2049 175.903 93.5944 181.499 93.3029C177.163 93.2676 171.273 92.6561 168.963 93.1241C160.388 92.5627 161.618 91.1507 165.661 91.0732C164.699 91.5162 181.304 91.6187 170.059 92.1949C175.11 92.7643 184.338 92.7688 190.945 93.1241L190.645 93.0102L198.848 93.1526C197.693 92.9954 195.213 92.8611 195.131 92.5616L206.493 93.3678C200.097 92.8258 210.457 92.9909 213.368 92.7517C214.585 93.2118 219.023 93.55 214.764 93.8119C209.977 94.1467 211.977 93.5625 207.625 93.5272L213.789 94.2549L214.318 94.1832L218.028 94.7764C226.424 94.7343 214.361 93.3951 225.119 93.977L223.719 94.7867C236.174 94.6683 252.169 93.7561 260.969 94.1296C258.541 93.6695 257.471 92.9294 260.81 92.4898C257.015 92.6299 249.389 92.6003 243.947 92.524C242.899 92.6663 250.747 93.4817 256.659 93.3063C253.795 94.6318 241.787 92.5057 241.092 93.8495C226.027 94.3186 229.855 92.5559 217.067 93.345C216.891 92.7449 213.432 93.0512 212.76 92.5229C216.545 91.5435 229.855 92.5559 238.153 92.2142C237.34 92.171 235.706 92.081 235.385 91.9671C241.318 91.7918 243.768 91.925 247.911 92.1471L247.39 92.2188C254.63 92.8052 251.869 91.7701 256.131 91.5071C257.782 91.5959 263.708 91.4228 262.755 91.8635L270.472 91.2941L270.1 91.9637C274.454 92.0024 275.406 91.5606 279.351 91.9683L279.534 92.5673L268.723 92.7756C274.202 92.9715 270.25 93.3507 276.271 93.4748C269.545 92.8189 281.028 93.1435 281.691 92.5866L286.119 92.9237L284.986 92.7643C288.462 92.4557 289.124 92.9874 293.179 92.9089C288.396 93.2437 285.263 93.6639 279.168 93.2391C283.606 93.575 292.405 93.9485 294.565 93.969C299.225 94.2207 302.478 93.7641 306.837 93.6958C298.471 93.4555 309.767 91.8783 293.002 92.3088C293.312 92.4238 294.669 92.3976 295.194 92.327C292.959 93.0922 285.144 92.2791 281.509 91.9865C282.446 91.5447 278.644 91.4353 285.088 91.1916C282.974 91.4741 290.518 92.1755 296.649 91.8134L295.569 90.8694L304.497 90.7578L303.662 90.7134C307.019 90.1053 313.186 90.8307 319.334 90.4731C323.772 90.8102 340.798 90.5426 333.473 91.5298C338.991 90.9388 343.832 91.6916 349.853 91.818L342.348 92.2029C351.22 92.8781 348.665 92.442 355.766 93.5158C356.484 93.2573 358.066 93.0467 356.623 92.7745C368.543 92.7256 385.566 92.4579 392.559 93.2311C393.78 93.2072 394.872 93.189 395.875 93.1696L399.865 93.0398L406.672 92.6925C408.914 92.5786 411.281 92.4784 414.294 92.4351C417.314 92.3919 420.964 92.4044 425.941 92.5126C426.326 92.524 426.631 92.5411 426.794 92.5616C425.699 91.0186 430.5 95.6385 421.564 85.8099C421.197 85.4421 423.117 87.8756 423.805 88.8823C424.496 89.8912 424.031 89.5564 419.152 83.9469C416.191 80.0627 411.714 75.1046 407.19 70.1134L401.753 64.094C400.315 62.4775 398.928 60.8036 397.594 59.0755C394.425 55.8369 389.27 49.8266 390 51.471C394.844 56.8015 401.508 64.5609 402.363 65.9251C402.142 65.4275 403.041 66.3328 403.578 66.8384C403.807 67.0468 404.126 67.3611 403.949 67.1014C403.801 66.8725 403.463 66.417 402.615 65.3591L403.898 66.7234L405.519 68.5101L408.089 71.4047C409.128 72.5941 410.146 73.8059 411.144 75.0396C412.759 77.029 414.103 78.7337 419.452 84.6142C419.61 84.957 418.032 83.3844 416.242 81.4952C414.446 79.5969 412.428 77.3695 411.48 76.1454C411.027 76.1841 415.671 81.6068 419.111 85.6858C420.835 87.7298 422.261 89.4425 422.607 89.9857C422.959 90.5369 422.206 89.8935 419.739 87.4167C414.881 81.9325 412.336 78.4798 409.506 74.8358C408.037 72.9272 406.526 71.0606 404.975 69.2377L403.661 67.7277L402.643 66.6118C401.926 65.8503 401.192 65.1098 400.442 64.3912C400.967 65.1576 401.611 65.982 402.321 66.8509L403.557 68.3301L405.255 70.3241C407.537 73.0104 409.921 75.8732 411.501 78.2555L404.457 70.6794L403.768 69.7695L403.05 68.8232L402.658 68.3051L402.358 67.8883L400.751 65.6575L400.892 65.9809C391.766 56.6044 393.365 56.2662 385.843 47.1437C390.68 51.8821 385.648 44.996 389.239 48.615C384.107 42.6297 380.228 38.3606 379.707 38.8764C389.024 50.3937 379.742 40.0915 388.238 50.8743C386.589 49.3939 389.664 54.122 384.257 48.0877C378.574 40.8237 386.467 49.6797 380.613 42.6468C380.215 42.2915 379.8 41.9214 379.939 42.2426C377.426 38.8035 376.62 38.6715 373.552 34.5401L374.248 35.5547C369.824 31.191 370.067 30.0306 366.192 26.3513C367.975 27.5584 364.103 23.2961 362.126 20.5301C365.864 24.4758 368.333 26.1054 375.41 34.2303C375.982 35.5342 375.305 35.1231 378.085 38.6043L373.501 33.3045C374.45 34.4934 375.136 35.4419 375.992 36.5477L380.577 41.4318C375.156 34.7929 378.042 37.3824 375.949 34.3214C370.677 28.6015 371.78 29.3941 368.45 25.8138C368.403 26.2386 365.742 23.6172 362.318 20.0837L356.841 14.3671L355.456 12.9118L354.776 12.1978L354.691 12.109L354.686 12.1033C354.668 12.0828 354.817 12.2559 354.751 12.1808L354.741 12.1694L354.72 12.1466L354.679 12.101C354.631 12.0498 354.54 11.9473 354.579 11.9929C354.611 12.043 354.582 12.0145 354.557 11.9894C354.378 11.8011 354.262 11.5479 354.229 11.2732C354.232 11.444 354.262 11.6364 354.318 11.7959C354.345 11.8756 354.38 11.9484 354.417 12.0111C354.443 12.0623 354.524 12.1637 354.47 12.0942C354.488 12.1295 354.577 12.2434 354.624 12.3094L354.629 12.3163L354.564 12.24L354.567 12.2434L354.578 12.257L354.599 12.2844L354.64 12.339L354.721 12.4438L355.003 12.8196L355.392 13.3616C355.578 13.6361 355.621 13.7431 355.557 13.7249C355.494 13.7067 355.327 13.5643 355.087 13.3377L354.263 12.5212C354.013 12.3048 353.83 12.0039 353.739 11.6615C353.643 11.3335 353.656 11.0523 353.616 11.0238C353.616 11.0238 353.749 10.5808 354.02 10.3052C354.084 10.2348 354.153 10.1708 354.226 10.1139L354.252 10.0934L354.258 10.0877L354.198 10.1549L354.2 10.1527L354.205 10.1481L354.215 10.1401L354.251 10.106L354.392 9.97158C354.416 9.97158 354.379 10.0092 354.424 9.98183C354.54 9.9192 354.617 9.893 354.617 9.893C354.363 10.0388 354.144 10.0194 354.456 9.65501C354.653 9.53087 354.874 9.46436 355.099 9.46142C355.176 9.46028 355.335 9.47281 355.324 9.48875L355.512 9.50811C355.516 9.51608 355.511 9.52291 355.511 9.52747C355.508 9.53658 355.574 9.55481 355.598 9.57075C355.871 9.70398 356.017 9.90668 356.117 10.106L356.183 10.2608L356.212 10.3417L356.373 10.5751L357.161 11.6638C357.923 12.6749 358.712 13.6588 359.528 14.6143C360.078 14.7133 356.843 10.2312 359.602 13.0963C360.712 13.9025 364.145 16.5877 369.575 23.2369C369.886 23.7914 371.297 25.5121 372.952 27.4832C372.729 27.2008 372.443 26.8547 372.353 26.7146L376.347 30.6888C373.553 26.6087 369.712 23.5569 366.904 19.4562L367.007 18.7194C364.514 15.8771 361.289 11.8357 359.926 9.84176C363.792 14.0995 364.494 15.1233 368.669 20.0541C369.501 20.4617 366.682 16.8508 366.276 16.3303L366.697 17.296C364.006 14.5858 362.2 12.3242 360.269 9.85316L358.782 7.94916C358.298 7.28641 357.754 6.76032 357.014 6.39478C355.6 5.66257 353.449 5.80035 351.961 7.58705C351.155 8.71213 351.691 8.05052 351.937 7.88654C350.718 9.18699 350.285 11.3859 350.884 13.217C351.168 14.1542 351.692 14.9058 352.353 15.5981L354.254 17.7333C356.786 20.5733 359.286 23.4099 361.53 26.5108L360.108 24.4416L375.826 44.3561L375.732 44.5827C374.911 43.847 377.396 46.6655 378.787 48.114L378.782 48.1037L387.419 58.9992C386.273 57.9413 385.17 56.8257 384.111 55.6559C383.246 54.2814 377.033 47.5252 378.255 48.0308C375.215 45.1031 371.032 39.5722 368.824 37.3949C372.828 41.3839 366.577 34.0003 366.135 33.0062C364.626 31.8492 360.59 26.6497 360.751 27.5857C359.925 26.8399 362.814 29.4362 364.213 31.4791C367.836 36.3074 356.743 23.5899 361.349 29.5011C358.35 25.8218 354.774 21.6733 351.181 17.4885L350.478 16.6651C350.184 16.3082 349.919 15.9213 349.687 15.5093C349.222 14.6751 348.904 13.7462 348.75 12.774C348.445 10.8494 348.804 8.8648 349.754 7.23517C350.677 5.65231 352.112 4.53065 353.657 4.11728C355.153 3.70295 356.73 3.91641 358.099 4.71854C358.099 4.71854 357.727 4.51698 357.135 4.33933C356.415 4.12951 355.669 4.06325 354.929 4.14347C354.196 4.22371 353.481 4.44997 352.817 4.81192C352.275 5.10458 351.957 5.3813 351.957 5.3813C352.984 4.56937 354.716 3.92255 356.549 4.33478C357.728 4.59365 358.817 5.23415 359.684 6.17954L360.113 6.66124L360.919 7.57224C363.036 9.96703 364.874 12.0099 365.207 12.2069C363.45 10.1603 361.693 8.11283 359.937 6.06453C359.068 5.06285 357.97 4.35865 356.768 4.03188C356.726 3.88157 357.497 3.91344 358.56 4.51128C359.083 4.80736 359.672 5.27196 360.187 5.86297L361.408 7.27047C363.075 9.2109 364.779 11.2333 365.045 11.2743L372.314 20.9571L368.839 17.0478C370.788 19.783 378.283 27.6962 383.689 33.7316C381.128 29.6537 375.627 24.5214 370.2 17.8745C366.304 12.995 373.22 20.1907 369.47 15.6426C370.593 16.6503 373.106 19.5428 374.223 21.1074L375.843 22.7415C374.348 20.5107 371.639 17.2197 368.709 13.6976L364.272 8.3409L362.163 5.72633L361.663 5.09206L361.418 4.77889C361.34 4.67868 361.27 4.58417 361.105 4.39514C360.549 3.74966 359.917 3.19476 359.228 2.74622C360.171 3.38278 360.826 4.16624 361.011 4.48623C360.149 3.60994 359.136 2.94802 358.037 2.54273C356.938 2.13744 355.776 1.99769 354.627 2.13243C352.891 2.33825 351.257 3.16963 349.964 4.5056L349.739 4.74701C349.567 4.93718 349.523 4.99981 349.411 5.13305C348.167 6.69356 347.423 8.68806 347.302 10.7914C347.181 12.8947 347.689 14.9828 348.743 16.7152C349.599 18.0271 349.957 18.2822 350.441 18.9199L349.684 18.1592L349.297 17.7413C349.122 17.5354 348.956 17.3203 348.799 17.0967C348.24 16.2996 347.875 15.5025 347.628 14.7452C347.146 13.2227 347.062 11.8687 347.227 10.3474C347.194 10.1094 346.703 12.5338 347.717 15.2497C347.972 15.9379 348.297 16.5893 348.687 17.1901C348.851 17.4634 349.228 17.9462 349.285 18.0203L349.735 18.5771C350.245 19.2137 350.706 19.799 351.019 20.2294C350.085 19.2433 349.559 18.7217 349.259 18.4553L349.205 18.4086L349.18 18.3869L349.174 18.3824L349.103 18.3004L349.091 18.2901L349.009 18.2207C348.972 18.1899 348.933 18.1621 348.893 18.1375C348.793 18.051 348.75 18.0328 348.734 18.0499C348.7 18.0783 348.752 18.2173 348.516 17.9736C348.292 17.7048 347.835 17.2664 347.146 15.7644C347.448 16.539 347.834 17.2674 348.295 17.9326C348.916 18.7809 349.068 18.9051 349.358 19.2672L351.003 21.1769L354.789 25.3868C356.446 26.874 353.806 23.7163 354.338 23.7994C357.142 27.3067 359.036 28.212 363.076 33.4173C357.253 27.0061 364.085 35.705 365.903 38.1271L364.927 37.0533C366.473 39.4276 368.003 41.1949 369.505 42.3439C367.272 39.5483 364.927 37.0533 365.867 37.5008C367.403 39.2773 368.935 41.048 370.606 43.1388L369.21 41.0981L376.848 49.9257C377.825 51.5883 379.518 54.2939 380.228 55.9144C382.292 57.7671 384.68 60.9009 386.347 62.9917L385.634 61.9486C387.434 63.7637 390.179 66.8703 392.527 69.6443C393.562 70.8628 394.581 72.0992 395.583 73.3532C395.986 73.8622 396.323 74.2995 396.573 74.6388C396.687 74.7982 396.822 74.9804 396.856 75.0476C396.876 75.1 396.886 75.1421 396.886 75.1729C397.019 75.2697 397.05 75.2173 397.001 75.0465C396.983 74.9987 396.981 74.9668 396.938 74.8848L396.663 74.4737L395.939 73.4329L392.245 68.2311C391.169 66.6721 390.539 65.6518 391.238 66.2542C391.588 66.556 392.268 67.2631 393.392 68.5112L395.422 70.8081L398.096 73.902C399.932 75.9951 400.204 76.6942 400.146 77.0826C400.088 77.472 399.782 77.6439 400.245 78.4411C400.245 78.4411 400.323 78.3705 400.585 78.5663C401.923 79.9772 401.333 79.8953 401.809 80.6878C400.84 79.8201 400.023 78.9 399.971 78.6176C399.698 78.7451 400.73 79.7393 401.523 80.6366C401.004 80.6377 400.453 80.6115 399.927 80.4942C402.605 81.2025 397.522 80.7641 399.151 81.1285C398.494 81.2424 397.676 81.2936 396.853 81.2959C396.441 81.2971 396.027 81.288 395.624 81.2675L395.031 81.231L394.745 81.2071L394.068 81.1809C390.395 81.0329 387.198 80.7618 385.091 80.4999C379.649 81.3893 375.547 80.3815 366.714 80.7937C368.071 80.7675 370.535 80.9008 372.434 80.8051C377.469 81.3688 363.282 81.1012 371.031 81.6159C369.374 81.5271 370.914 81.3164 372.614 81.4052C375.587 81.469 378.386 81.7161 377.639 81.9735L370.441 82.4723L372.954 82.6089L362.029 83.299C361.732 83.1851 362.757 83.0439 363.282 82.9744C350.612 83.2785 336.124 82.8936 325.023 82.9858C322.938 81.395 297.696 82.3037 288.726 81.3267C291.13 81.7833 292.446 82.5884 290.957 82.9198C292.957 82.987 297.053 83.6292 301.588 83.496C302.313 83.2398 307.915 82.9505 304.31 82.659C316.846 82.8401 302.613 83.3571 306.313 83.9492C292.422 83.7943 284.275 82.8628 275.507 82.4882L275.285 82.6761L268.664 82.3197C274.074 82.2138 273.807 81.3119 266.834 81.6284L267.683 81.6729C263.705 82.0521 255.43 81.6057 249.217 81.6649L245.005 81.1433C238.782 81.2025 238.515 82.1739 236.491 82.7558C226.738 82.8241 221.106 82.0281 214.179 81.5544C211.047 81.978 196.438 82.0782 204.178 82.5918C195.381 82.2183 197.156 79.9499 182.068 81.2071L185.984 81.6159C171.558 81.5305 150.985 80.7174 144.338 81.1479C149.66 82.6157 126.32 82.6419 123.755 84.0802C124.47 83.7511 119.05 83.6418 118.26 83.4664C117.072 83.6349 115.095 83.7989 112.997 83.5017C118.622 83.2124 109.042 82.0076 119.797 82.5884C114.355 81.6022 107.342 80.8313 95.42 80.8803L95.599 81.4804L105.032 81.2982C104.079 81.7412 108.935 81.707 110.925 81.912C93.377 82.2491 113.222 83.3172 95.282 83.2386C93.549 82.8492 94.672 83.0097 90.009 82.856C92.202 82.8765 92.596 83.2899 89.063 83.2978L85.669 82.8184C79.404 83.8194 96.039 83.4698 90.694 84.1736C97.621 84.645 109.619 84.8967 107.384 85.663C96.071 85.9409 97.207 84.2282 85.378 84.5755L84.119 84.9024C79.964 84.6928 79.4 84.0916 77.216 83.6076C77.008 83.7636 75.977 83.8558 73.411 83.5176C70.099 82.5998 67.412 81.6603 64.848 80.5842C62.292 79.4944 59.856 78.2566 57.205 76.4768C60.877 78.473 63.665 79.4831 65.914 80.1709C67.8045 80.7351 69.7252 81.1585 71.664 81.4383C73.42 81.6968 75.197 81.9006 77.579 82.0794C78.77 82.1648 80.114 82.2468 81.685 82.2832L87.453 82.4222C86.756 82.3595 85.45 82.3015 83.87 82.2365C82.243 82.1762 80.557 82.1067 78.875 81.9052C75.528 81.5351 72.498 80.7049 72.211 80.2267L72.278 80.8484C66.993 79.5206 61.885 77.5893 55.723 74.4828C55.723 74.4828 56.617 75.0693 57.533 75.617C58.447 76.1693 59.381 76.6829 59.381 76.6829C55.289 74.583 51.927 72.7451 48.893 70.7272C45.877 68.698 43.193 66.466 40.854 63.3868C42.742 65.2601 44.328 66.6983 45.521 67.8223C41.929 64.5005 37.667 60.0253 34.448 55.6274C34.448 55.6274 32.964 53.1837 31.698 50.6147C30.409 48.057 29.347 45.3935 29.347 45.3935C29.253 45.5142 28.404 43.9644 27.776 42.763C27.147 41.565 26.682 40.7428 27.189 42.4658C25.355 38.7603 24.478 35.7597 23.894 33.1747C23.317 30.5784 23.041 28.3738 22.652 25.9858C22.126 23.9121 21.971 23.3154 21.952 23.6354C21.942 23.952 22.094 25.1773 22.35 26.6839C22.824 29.7095 23.89 33.8033 23.69 34.3408C21.828 28.6926 20.745 22.5274 20.46 16.9783C20.3688 15.3213 20.3392 13.6607 20.371 12.0008L20.381 11.4964L20.385 11.2276L20.38 10.7642C20.3405 9.54601 20.1211 8.34415 19.731 7.209C19.0042 5.10943 17.7282 3.31497 16.076 2.06868C14.6393 0.985482 12.9778 0.351286 11.258 0.229612C13.539 0.25011 15.154 1.08367 16.111 1.66443C17.073 2.2748 17.47 2.64033 17.426 2.48888C17.264 2.40575 16.714 1.90471 15.8 1.35356C14.6465 0.6634 13.3893 0.226127 12.094 0.0644889C10.5296 -0.124943 8.94788 0.104339 7.475 0.73407C6.11037 1.32161 4.87613 2.24422 3.86 3.43632C3.86 3.43632 3.187 4.07174 2.621 4.85748C2.046 5.63183 1.602 6.53827 1.602 6.53827C1.2393 7.52517 1.00159 8.56577 0.896 9.62884L0.849003 10.2882C0.839003 10.5102 0.829003 10.8416 0.835003 10.9373L0.850002 11.1889L0.849003 11.3461L0.850002 11.354L0.851002 11.37L0.854 11.4007L0.859001 11.4611L0.870003 11.575C0.929003 12.1625 0.985 12.4153 1.041 12.3721C1.097 12.3288 1.151 11.9895 1.207 11.3882C1.23 10.8917 1.231 11.1821 1.275 10.5945C1.40076 9.32297 1.71523 8.08502 2.205 6.93341C1.81049 7.97834 1.55177 9.08314 1.437 10.213C1.334 11.5727 1.376 11.9439 1.343 12.6568C1.30971 13.9952 1.30104 15.3343 1.317 16.6731C1.355 19.3788 1.563 22.1118 2.126 24.5703C1.797 20.4003 1.507 15.6687 1.507 11.4269L1.514 10.9179C1.56849 9.26621 1.95471 7.65071 2.643 6.19551C3.34033 4.72685 4.328 3.46296 5.528 2.50369C7.789 0.685105 10.307 0.415218 11.929 0.691933C10.3308 0.489748 8.71393 0.761193 7.235 1.47995C5.99167 2.08747 4.87953 2.99622 3.97597 4.14295C3.07241 5.28967 2.39914 6.64684 2.003 8.12C1.78438 8.94041 1.65507 9.78829 1.618 10.6446L1.608 10.9282L1.608 11.0557L1.61 11.4406L1.618 11.7048C1.704 14.5061 1.938 16.8303 2.244 19.2797C2.56 21.728 2.944 24.3062 3.529 27.6006C4.127 30.8904 4.896 34.9102 6.31 40.1507C6.538 40.3409 5.829 36.7265 6.991 40.7087C8.357 45.3138 8.501 45.9435 8.216 45.857C7.957 45.7624 7.385 44.8913 7.721 46.3967C6.548 42.845 5.785 40.2111 5.097 37.9609L3.178 31.7308L3.322 33.7874C3.498 34.0573 4.633 38.6806 5.186 39.9605L4.993 41.3384C5.214 40.9512 5.957 42.5455 6.944 44.8856L10.29 53.0356C8.886 50.4473 8.411 49.4657 8.077 49.0261C7.75 48.5808 7.588 48.6606 6.971 48.0536C8.159 52.136 9.319 54.2097 10.528 56.346C12.1561 59.1184 13.6981 61.9553 15.151 64.8513C14.898 64.1612 11.077 57.06 14.647 63.0008C16.126 65.4525 16.727 66.5503 17.169 67.4829C17.617 68.4099 17.916 69.1649 18.977 70.775C17.919 68.8346 17.661 68.0079 17.383 67.1413C17.112 66.2724 16.812 65.3671 15.863 63.1853C13.323 58.8307 12.939 57.8605 12.482 56.9791C12.074 56.0681 11.587 55.2266 9.725 50.5873C11.1455 52.9625 12.4673 55.4124 13.686 57.9288C11.758 54.1197 11.314 52.5824 11.216 51.9834C11.13 51.3753 11.454 51.6566 11.402 51.2854C12.982 54.5388 14.14 56.7195 14.97 58.3604C15.803 59.9991 16.313 61.0934 16.739 62.0591C17.612 63.9687 18.084 65.4298 20.808 69.1227C21.985 71.0324 20.68 69.3311 19.607 67.8302C18.545 66.3225 17.663 65.0597 19.482 68.0751C22.014 71.5676 22.314 71.9571 22.591 72.5549C22.905 73.1163 23.182 73.9066 26.315 77.5836L25.408 76.1909C27.565 78.1359 29.302 80.5284 31.744 82.856C33.062 84.1656 32.008 83.8695 32.029 84.5254C32.043 84.8511 32.323 85.425 33.351 86.5285C34.384 87.6205 36.155 89.2729 39.281 91.4775C38.743 90.9081 38.571 90.6564 38.604 90.5984C38.604 90.5984 36.146 87.3791 34.056 83.9823C31.929 80.6013 30.174 77.0826 30.174 77.0826C35.724 82.799 41.9882 87.5457 48.762 91.1677C55.845 94.9609 63.716 97.58 71.758 98.6425C73.7 98.4273 70.855 97.8784 67.728 97.0551C64.592 96.2534 61.193 95.0736 61.718 95.0087C61.718 95.0087 59.952 94.5054 58.212 93.8928C56.468 93.2927 54.753 92.5832 54.753 92.5832C54.871 92.8758 58.45 94.4405 61.286 95.4016C64.114 96.3707 66.141 96.9868 62.834 96.4504C56.582 94.4109 52.195 92.3555 48.042 90.0142C43.919 87.6194 39.988 84.8932 35.359 80.3007C37.12 81.2458 40.315 83.997 44.218 86.6332C48.099 89.2922 52.705 91.777 56.552 92.9225C53.406 91.6995 50.869 90.3 48.491 88.8014C55.6351 92.7091 63.2785 95.3012 71.136 96.4811L72.979 97.0038C67.332 96.3206 63.51 95.1602 63.012 95.0679C70.317 97.194 76.668 98.0936 77.141 98.8588L75.785 98.7677L77.156 98.9966L78.532 99.1971C80.332 99.2449 82.143 99.2039 83.898 99.1504V99.1504ZM398.658 133.505C398.29 133.826 397.984 134.062 397.733 134.207C397.994 134.058 397.817 134.355 398.658 133.505ZM15.705 24.1183C15.1435 20.5086 14.8027 16.8588 14.685 13.1954L14.635 11.0921C14.5683 10.0476 14.1537 9.07158 13.476 8.36368C12.82 7.6712 11.9581 7.28712 11.0636 7.2886C10.1691 7.29007 9.30825 7.67701 8.654 8.37165C8.02235 9.04461 7.63221 9.96034 7.559 10.9418C7.532 11.4235 7.562 12.166 7.573 12.839L7.64 14.8728C7.5241 13.6935 7.42608 12.5121 7.346 11.329C7.27316 10.444 7.44332 9.55516 7.833 8.78503C8.591 7.2443 10.114 6.42099 11.476 6.46882C12.853 6.48476 14 7.25682 14.684 8.06761C15.387 8.88409 15.692 9.70285 15.872 10.1196C16.042 10.5455 16.135 10.5934 16.136 10.1083C16.111 9.6482 16.004 8.55955 15.089 7.24771C14.5321 6.47169 13.8136 5.86653 12.999 5.48722C11.8929 4.97246 10.6692 4.88446 9.515 5.23669C8.34763 5.59565 7.31539 6.37951 6.57569 7.46877C5.83599 8.55802 5.42943 9.89287 5.418 11.2698C5.419 12.2582 5.427 13.2364 5.461 14.2897L5.46 16.4875C5.35186 15.2159 5.28082 13.9406 5.247 12.6636C5.247 11.9257 5.164 11.255 5.285 10.2756C5.40909 9.35227 5.70577 8.47 6.155 7.68842C7.062 6.07709 8.711 4.88595 10.516 4.74247C12.308 4.55571 14.179 5.44165 15.327 6.99718C15.8639 7.80847 16.2229 8.75405 16.374 9.75523C16.46 10.3223 16.468 10.9737 16.409 11.5602L16.277 13.3844C16.1114 16.0633 16.065 18.75 16.138 21.4342C16.2036 23.7718 16.3544 26.1052 16.59 28.4284C16.771 30.2459 16.923 31.3812 16.873 31.3425C16.064 29.443 15.811 26.4026 15.221 22.7119L15.705 24.1183V24.1183ZM19.313 31.5896C20.163 34.6551 20.533 35.82 20.612 36.386C20.702 36.9474 20.543 36.8893 20.581 37.4074C19.9172 35.273 19.338 33.1057 18.845 30.912C19.106 31.7228 19.293 32.0998 19.313 31.5896V31.5896ZM20.229 37.1433C20.004 36.46 19.814 35.877 19.69 35.5798L20.229 37.1433ZM37.893 81.7708L37.426 81.3665C38.5442 82.2687 39.6832 83.1367 40.842 83.9697C40.363 83.6657 39.467 83.0542 37.893 81.7708ZM28.6 73.7779L27.956 72.3158C28.8719 73.3459 29.8109 74.3491 30.772 75.3243C30.315 75.1604 29.85 74.9713 28.6 73.7779ZM7.65 38.2479C7.537 36.8461 6.937 33.9434 6.559 31.273C6.171 28.6049 5.986 26.1862 6.255 25.856C6.335 25.2559 6.651 27.1268 7.088 29.2016C7.527 31.5281 8.088 33.9901 8.79 36.5602C8.727 36.6786 8.777 37.2218 8.941 38.1032C8.15 35.5923 7.618 33.9001 7.492 35.0662C8.726 38.2558 9.047 39.7396 9.307 41.3566C9.587 42.9577 9.801 44.6966 11.257 48.0741C11.501 49.2641 10.6 47.4307 9.676 44.9562C8.74 42.4908 7.86 39.3695 7.65 38.2479V38.2479ZM400.001 70.8035C399.833 70.701 399.288 70.307 398.539 69.7365L401.309 73.3919C403.32 75.5954 405.379 77.6622 407.472 79.8155C409.548 81.9507 411.652 84.1667 413.344 86.2051C411.737 86.16 410.131 86.0495 408.531 85.8737C405.821 86.0957 404.612 86.566 403.168 86.9532C404.653 86.9333 406.139 86.8915 407.623 86.828C410.804 87.0124 413.408 87.1161 415.374 87.1616C413.45 84.8727 411.994 83.3047 410.839 82.1625C409.679 81.0158 408.798 80.2688 407.909 79.4921C406.876 78.6043 405.884 77.6547 404.939 76.6475C403.736 75.3653 402.297 73.6879 400.001 70.8035V70.8035ZM341.564 87.6126C342.4 87.657 342.7 87.7743 342.7 87.7743C324.597 86.4601 309.692 86.0787 299.932 86.1299C301.825 85.6084 310.578 85.2041 314.736 84.9889L311.052 84.3956L308.751 84.8625L302.355 84.3227C304.143 83.923 309.309 84.0062 312.761 83.6998C313.061 83.8137 324.115 84.5061 327.206 84.8716L318.373 85.2815C320.758 85.1153 332.476 85.2531 337.122 85.4045C337.213 85.7029 329.206 86.1618 328.197 85.515C327.245 85.9568 336.475 85.9614 330.638 86.4351C337.555 86.9065 348.561 86.5125 353.667 86.2939L354.532 85.5514C360.135 85.2633 358.317 86.4465 364.973 86.0172C356.789 85.8725 366.357 85.203 359.847 85.1472C361.925 84.867 359.889 84.3626 366.412 84.4172C371.841 85.4 373.287 83.8012 378.42 84.6689C381.849 84.3614 374.73 84.0767 381.477 83.9458C389.217 84.4616 388.77 84.8317 389.249 85.548C382.012 85.7484 381.118 84.6177 375.199 84.7919L386.971 86.0172C384.801 86.1903 383.196 86.2085 381.848 86.1595C384.214 86.2312 386.224 86.4123 387.944 86.6617L390.662 87.025C383.989 87.0318 378.063 87.0489 377.016 87.3541L377.936 87.7014C375.574 88.0202 371.723 87.7708 369.949 87.5158C363.974 87.4782 358.006 86.9942 356.701 87.444L358.969 87.7617C351.624 87.6604 350.806 87.6171 341.564 87.6126V87.6126ZM100.757 88.4017C105.208 87.1297 110.115 86.0058 130.887 86.229L129.252 86.1413C139.719 85.343 149.662 87.1969 162.397 86.3098C156.217 85.8304 156.55 85.8737 149.727 84.7771L156.357 85.1369C154.52 84.4446 161.134 84.8033 165.999 84.7702L161.705 83.9469C158.785 84.1838 151.214 84.2692 151.436 84.0813C153.093 84.1724 141.441 85.121 135.111 84.8818C135.763 84.3239 149.129 84.5493 143.161 83.6383C148.421 84.0198 149.073 83.4641 154.572 83.66C149.299 83.2774 153.266 82.8993 149.341 82.4927L158.357 82.6829C158.592 82.4973 145.227 82.2707 152.614 81.584C156.226 81.8767 165.871 81.51 166.045 82.1101L166.267 81.9257C173.025 81.7958 169.24 82.7763 177.538 82.4335C177.636 82.7353 176.053 82.9448 173.08 82.8822C170.568 82.7478 170.183 82.3356 165.007 82.2513C162.687 82.7216 171.249 82.1933 167.657 82.987C165.872 83.3821 153.995 82.6454 157.78 83.5381L164.525 83.4094C164.698 84.0107 169.583 83.9765 169.446 84.4616C173.571 84.6826 177.463 84.0062 181.675 84.5288C183.424 84.9172 180.37 85.6403 187.34 85.326C192.786 84.4366 208.833 84.6097 214.844 84.7361L220.104 85.1198C219.657 85.4888 210.054 85.0697 213.431 85.5492L221.634 85.6938L221.001 85.4626C223.719 85.4114 226.499 85.6596 228.979 85.7917C226.424 85.359 220.512 85.5321 221.686 84.9069C225.537 84.7839 226.124 84.5505 229.667 84.6712C228.894 84.6268 228.229 84.5653 228.326 84.4776C236.121 84.2066 235.853 85.1779 237.808 85.3817C245.646 86.1971 229.909 86.1379 230.91 86.7824L253.794 87.1275C251.839 86.9236 249.872 86.7221 250.609 86.4647C256.221 86.1755 250.736 85.9785 258.616 86.0092C258.055 86.8655 268.539 86.5433 274.105 87.0375C276.706 86.6868 277.241 86.6161 271.553 86.6059C272.206 86.0502 279.841 86.2632 282.556 86.213C284.129 86.3508 286.811 86.4317 288.511 86.5558C286.234 86.8325 287.206 87.181 292.136 87.4178L292.423 87.5351C284.341 87.6877 271.778 88.2947 266.711 87.7253L268.144 88.0009C258.789 88.4814 247.787 87.0022 243.472 88.0521C243.87 88.4678 241.593 88.1478 241.756 88.7479L234.867 88.2787L236.3 88.5509L224.583 88.4154L224.893 88.5281L211.476 87.1776C211.463 86.9157 211.825 86.8348 209.969 86.6424C208.459 86.529 206.946 86.4906 205.433 86.5273C205.423 86.5262 205.423 86.5262 205.423 86.5239L205.423 86.5273C202.548 86.6036 200.633 86.9794 197.092 87.1332L207.988 87.1981C208.875 87.6433 207.948 88.1045 202.611 88.4154C204.794 88.4325 205.707 88.7786 203.006 88.8299C202.709 88.7137 195.867 88.5452 198.474 88.1911C188.124 88.0282 171.369 89.1966 155.654 88.3516C166.944 88.8595 146.606 88.9472 159.138 89.1305C150.39 89.8422 151.611 88.4302 142.693 88.5406C141.933 88.7969 147.548 88.5076 149.598 89.0121C134.771 89.2968 124.58 87.8631 110.237 88.0783L109.623 88.6329L100.757 88.4017V88.4017ZM72.295 86.8701C69.4999 86.3302 66.738 85.5878 64.026 84.6473L64.833 84.8841C64.833 84.8841 62.833 84.1622 60.89 83.2865C58.941 82.4233 57.055 81.4121 57.055 81.4121C59.458 82.4244 61.533 82.9653 62.144 82.9631C62.764 82.9369 61.894 82.4905 58.64 80.9361C59.126 81.3927 57.096 80.8108 59.364 81.9382C57.071 81.1764 53.504 79.5696 50.964 78.005C48.413 76.4619 46.855 75.1319 48.203 75.6022C51.974 78.588 52.639 78.5015 52.987 78.4183C53.371 78.2805 53.49 78.0949 56.649 79.9955C53.326 77.7897 49.904 75.9711 46.996 73.5331C48.464 74.8677 48.172 74.9565 46.878 74.3006C45.592 73.6333 43.336 72.1495 41.048 70.1966C40.112 69.2651 38.342 67.5866 36.545 65.5972C34.739 63.618 32.917 61.3234 31.676 59.4491C32.319 59.9239 32.114 59.3318 32.298 59.3432C32.496 59.3375 33.015 59.9979 35.335 62.6922C33.0566 59.7162 30.853 56.6669 28.727 53.5481C29.6 55.1765 31.366 57.8389 31.122 57.7671C29.074 55.6377 27.27 52.5779 26.191 50.9597C25.4637 49.5762 24.775 48.1669 24.126 46.7338C24.355 47.1312 24.577 47.4603 24.756 47.6801C24.756 47.6801 24.266 46.4571 23.824 45.2147C23.377 43.9758 22.974 42.7208 22.974 42.7208C24.219 45.9754 24.664 46.6427 24.715 46.5186C24.779 46.3899 24.529 45.4402 24.631 45.3297C24.216 45.7875 22.76 41.3065 22.028 39.0518C22.7743 40.5835 23.5681 42.0846 24.408 43.5521C24.042 42.3599 23.143 40.3978 22.513 38.8104C21.879 37.2253 21.481 36.0455 21.936 36.5545C23.731 41.6595 25.315 45.0143 26.914 48.1948C28.542 51.3548 30.21 54.3566 32.936 58.2477L31.647 56.8345L30.388 55.3769C31.818 57.6897 32.893 59.0869 33.733 60.0833C34.3973 60.8662 35.1094 61.5945 35.864 62.2629C36.526 62.8607 37.223 63.4734 38.268 64.4573C39.316 65.4366 40.706 66.7963 42.866 68.7401C44.532 70.545 47.941 73.2792 51.082 75.3107C54.206 77.3752 57.006 78.8237 56.957 79.2929C56.366 78.8442 58.016 79.4819 60.279 80.2973C62.54 81.1297 65.438 82.0578 67.248 82.7433C69.197 83.734 73.363 84.842 76.602 85.2964C79.834 85.7826 82.095 85.8657 80.132 86.0206C76.619 85.9477 72.027 84.8181 69.195 84.67C69.195 84.67 70.85 85.1016 72.526 85.4228C74.2 85.7553 75.89 85.9773 75.89 85.9773C75.89 85.9773 74.77 85.9694 73.647 85.9136C72.524 85.8635 71.4 85.7632 71.4 85.7632C73.71 86.0058 73.448 86.3873 72.295 86.8701V86.8701ZM22.414 54.7551L22.556 54.984C22.5057 54.8973 22.4558 54.8104 22.406 54.7233L22.414 54.7551V54.7551Z" fill="#A19882"/>
<path d="M370.064 22.0822C371.329 23.812 374.789 27.7054 373.841 27.251C374.227 27.0016 367.741 20.1987 370.064 22.0822ZM374.474 26.4311C374.644 26.7887 374.361 26.7283 375.893 28.4979L371.72 23.5706L374.474 26.4311ZM380.845 28.9967C382.812 31.7491 384.074 33.4754 387.534 37.3699C389.561 38.0042 382.108 30.7219 381.234 28.1654C387.608 35.2678 388.902 38.2024 394.027 44.1796C391.15 41.6027 380.476 29.8485 380.845 28.9967ZM378.973 24.7503L382.313 28.9329L381.925 28.5868L378.581 24.403L378.973 24.7503ZM402.973 64.4778C403.246 64.5268 403.872 65.2374 404.57 66.1119L408.031 70.356L405.186 67.1778L404.417 66.2953L403.934 65.7179C403.603 65.3152 403.283 64.9017 402.973 64.4778V64.4778ZM384.56 141.953L357.588 172.164L384.56 141.953V141.953ZM311.007 90.7988C321.164 91.1473 325.678 91.785 336.028 91.9478C322.419 92.6926 318.052 90.784 306.626 91.547L311.007 90.7988V90.7988ZM314.59 93.7493C316.274 93.0524 306.752 92.9329 308.227 92.4216C315.073 92.5912 311.415 93.0854 317.628 93.0251L314.59 93.7493ZM360.62 82.232L357.54 81.8699L360.021 82.002L360.62 82.232ZM268.295 93.1299L269.417 93.2882L264.323 93.5079L268.295 93.1299ZM270.539 93.4476L269.417 93.287L270.539 93.4476ZM356.662 80.738L361.24 80.5888L363.505 80.9088L356.662 80.738ZM316.257 84.4754L320.353 84.6986C319.54 84.6553 313.938 84.9423 316.257 84.4754ZM237.188 93.4271L232.206 93.1583L232.715 93.09L237.682 93.3565L237.188 93.4271ZM284.201 82.5543C287.03 82.0191 276.031 82.4097 281.852 81.936C287.03 82.0191 284.929 82.2992 284.201 82.5543ZM224.081 86.1869C223.409 86.1869 222.701 86.1676 222.018 86.1083L224.081 86.1869ZM224.081 86.1869C226.251 86.1869 228.421 85.9819 229.909 86.1368C227.204 86.3794 226.219 86.2883 224.081 86.1869ZM199.22 86.0628L201.188 86.0241C199.178 85.7599 200.131 85.7986 201.925 86.0116C204.01 86.0298 203.893 86.1994 204.141 86.3156L205.423 86.524L203.713 86.3304C200.483 86.3338 198.512 86.3076 199.22 86.0628ZM106.868 95.0874C114.135 94.8881 116.014 94.7913 115.619 94.3757C122.517 94.2447 121.447 94.9599 125.607 95.125C117.803 95.0453 116.207 95.2365 106.868 95.0874ZM125.607 95.125L128.332 95.158C127.424 95.1707 126.515 95.1597 125.607 95.125ZM228.277 81.5169L223.762 80.8803L225.419 80.9692L228.277 81.5169ZM96.084 95.2958C97.432 95.2707 99.592 95.2889 100.652 95.1466C101.041 95.5634 94.74 95.3231 96.084 95.2958ZM124.11 87.1458C124.847 86.8907 129.497 87.0433 131.39 86.9453C128.675 86.9988 126.462 87.7652 124.11 87.1458ZM74.622 93.1253C76.089 93.2882 78.352 93.1606 77.399 92.745C78.448 92.9283 79.688 93.2187 79.701 93.3884C79.718 93.5421 78.481 93.6992 74.622 93.1253V93.1253ZM110.83 87.2198L111.867 87.0786L116.84 87.345L110.83 87.2198ZM128.567 81.0808C134.16 81.5773 119.695 82.2776 129.327 82.6978C116.902 83.2171 130.28 81.9952 121.114 82.076C126.482 81.9075 129.112 81.2801 128.567 81.0808ZM121.114 82.0749C120.334 82.1011 119.489 82.1159 118.572 82.1182L121.114 82.0749ZM45.545 72.227L46.996 73.532C46.488 73.1095 46.016 72.6871 45.545 72.227ZM91.842 81.665L100.224 82.4097C94.652 81.9109 80.478 81.9496 81.476 81.1969C85.917 81.0569 91.493 81.2459 93.721 81.5693L91.842 81.665ZM11.194 33.1122L11.621 35.36L12.104 37.5965C12.104 37.5965 11.69 36.2392 11.319 34.8658C10.946 33.4925 10.617 32.1044 10.617 32.1044C11.074 33.6667 10.877 30.657 11.194 33.1122V33.1122ZM10.369 31.0271L10.617 32.1032C10.5179 31.7497 10.4351 31.3905 10.369 31.0271V31.0271ZM59.149 80.7619C61.4205 81.6797 63.7091 82.542 66.013 83.348C65.509 83.2763 63.639 82.7775 61.986 82.1592C60.33 81.5499 58.894 80.8473 59.149 80.7619V80.7619ZM11.002 11.3985C11.037 11.2323 10.948 11.3951 11.029 11.3165C11.034 11.2983 10.939 11.4042 11.006 11.312C11.014 11.2949 11.019 11.2789 11.016 11.2869L11.011 11.3211C11.014 11.3359 10.996 11.3404 11.02 11.3564C11.053 11.3769 11.114 11.3905 11.123 11.4019L10.902 11.4463L10.876 11.452L10.875 11.452C10.9177 11.4517 10.9604 11.451 11.003 11.4498L11.003 11.4144L10.999 11.353L10.995 11.3177L11.002 11.3985V11.3985ZM15.902 31.8937L16.271 32.873C16.704 34.4969 17.0879 36.1373 17.422 37.7913L16.992 36.8211C16.992 36.8211 16.683 35.5969 16.411 34.3648C16.2295 33.5443 16.0598 32.7205 15.902 31.8937V31.8937ZM21.33 11.8665C21.423 16.0856 21.237 19.4677 20.997 18.3722C20.997 18.3722 20.814 16.3031 20.754 14.2237C20.7234 13.2604 20.7091 12.2965 20.711 11.3325L20.701 10.8246L20.67 10.3008C20.6476 10.0162 20.6149 9.73276 20.572 9.45125C20.5382 9.20465 20.4945 8.95994 20.441 8.7179C20.621 9.23944 20.73 9.72228 20.81 10.1744C20.845 10.401 20.875 10.6207 20.894 10.8337L20.931 11.3598C20.959 11.7675 20.944 12.2127 20.928 12.6284C20.895 13.4995 20.81 14.7897 21.044 17.1742C21.044 17.1742 21.069 15.8374 21.144 14.5084C21.212 13.1602 21.329 11.9235 21.33 11.8665V11.8665ZM189.805 90.71C188.049 90.3206 179.455 90.546 179.004 90.9161C180.159 91.0767 184.819 91.2304 181.892 91.4662L175.092 90.5096C166.047 91.1052 181.967 91.7668 186.434 92.1039C177.219 92.2268 174.488 91.5982 164.686 91.6028C166.775 91.5465 168.859 91.3697 170.932 91.0733C171.265 90.4003 162.132 90.6986 155.602 90.6451C159.759 90.3525 157.354 90.1065 154.326 89.8423C153.936 89.833 153.547 89.798 153.161 89.7375C152.818 89.7064 152.476 89.6749 152.133 89.643L152.916 89.6442C152.86 89.569 153.034 89.4779 153.598 89.3526C159.077 89.5485 163.266 88.986 166.793 88.9768C163.308 90.0712 178.804 89.2297 183.238 89.5667L188.358 89.6749L190.274 89.6772C190.659 89.5576 190.114 89.4062 187.194 89.1898C189.631 89.405 197.759 89.3299 197.009 89.6817L215.559 89.6977C216.089 89.6635 216.617 89.6039 217.142 89.5189C217.785 89.5884 217.892 89.6442 217.808 89.7L298.629 89.7706C294.642 89.8571 291.192 90.1065 287.081 90.2272C293.251 90.9537 280.34 90.3581 282.15 91.0459C284.923 91.2953 288.983 91.2168 291.401 91.0494C292.301 91.3967 288.856 91.7041 289.254 92.1186C279.061 92.5548 277.501 90.8945 267.536 91.1462C267.931 91.5618 271.011 91.9262 264.488 91.8693L266.145 91.9592C255.701 91.4935 258.007 92.8998 251.432 91.7588L251.605 92.3589C246.868 91.9068 237.65 91.9034 232.455 91.8203L232.766 91.9365C218.193 91.2487 224.585 91.7907 208.222 91.5026L215.753 92.2029C210.108 92.4922 208.836 91.7303 204.783 91.8089C205.073 91.9251 204.134 92.3635 207.961 92.4728L188.106 91.4047C183.367 90.9537 189.067 90.9651 189.805 90.71V90.71Z" fill="#A19882"/>
<path d="M164.687 91.6028C163.636 91.6347 162.442 91.6483 161.033 91.6256L164.687 91.6028ZM304.307 89.7751L298.629 89.7694C300.521 89.7264 302.415 89.7283 304.307 89.7751V89.7751ZM136.227 90.291C139.669 89.9812 133.649 89.8571 133.049 89.6259L145.38 89.6373C145.325 89.8685 146.545 90.1281 146.297 90.3388L136.227 90.291ZM148.949 89.2012C149.366 89.3629 150.672 89.5064 152.134 89.643L145.38 89.6373C145.422 89.4642 146.179 89.3059 148.949 89.2012ZM147.644 101.546L149.827 101.567L153.129 101.746L147.644 101.546ZM181.785 100.529C179.178 100.88 174.231 100.614 172.577 100.525C178.277 100.536 175.807 100.403 181.785 100.529ZM174.74 104.287L180.235 104.487L179.723 104.555L174.74 104.287ZM346.272 92.138L348.958 92.1767C348.063 92.1827 347.167 92.1698 346.272 92.138V92.138ZM299.121 91.5663C312.228 90.8922 290.533 91.0061 294.651 90.1429L301.784 90.4287L301.177 90.1976L309.876 90.2727C308.092 90.669 306.75 90.6941 307.139 91.1097C318.752 90.9469 310.8 90.6155 319.32 90.0905L332.3 90.1657L331.249 90.0416C332.342 90.0507 332.825 90.103 333.2 90.1702L376.943 90.4299C384.902 90.7601 372.542 91.178 378.412 91.7907C369.187 91.7884 355.479 92.2314 354.696 91.4012C355.007 91.5162 355.616 91.7451 353.747 91.8431L348.412 91.1598L353.499 90.9423C348.135 90.2613 330.811 90.4128 327.679 90.8353C337.531 91.0676 332.587 91.8875 346.311 91.4422C345.695 91.6529 343.182 92.023 346.272 92.138C330.191 91.8977 315.779 92.2758 299.121 91.5663V91.5663ZM385.926 139.478L386.062 139.428C385.832 139.634 385.746 139.69 385.926 139.478ZM389.678 135.059L395.725 129.323L387.044 139.118L386.062 139.428C386.916 138.66 390.125 135.416 391.161 133.92L389.678 135.059ZM402.465 122.343C397.853 127.254 397.678 126.502 399.921 123.513C395.63 127.958 398.208 126.486 394.945 129.197C394.737 128.749 399.964 123.199 401.179 121.94L402.465 122.343ZM391.522 91.1165L393.298 91.3955L388.925 91.4696L391.522 91.1165ZM393.298 91.3955L399.761 91.3204C399.178 91.5276 398.615 91.7292 397.407 91.8704L394.871 91.6335L393.298 91.3955V91.3955ZM419.776 91.1268L429.632 91.0288C429.397 91.2999 429.005 91.7485 428.606 92.2097C428.944 91.818 429.282 91.4263 429.629 91.03L419.776 91.1268ZM410.908 91.2976L411.252 91.2099L419.776 91.1268L410.908 91.2976Z" fill="#A19882"/>
<path d="M399.761 91.3203C400.446 91.0846 401.2 90.8443 403.226 90.678C405.243 90.5118 408.582 90.4207 414.233 90.4867L411.253 91.211L399.761 91.3203V91.3203ZM214.705 103.579L219.668 103.844L219.143 103.917L214.183 103.65L214.705 103.579ZM243.341 103.148C244.343 103.215 245.344 103.302 246.343 103.408C245.051 103.356 244.022 103.276 243.341 103.148ZM264.629 106.363C270.466 105.889 256.575 105.736 267.386 105.527C268.339 105.087 263.272 104.517 258.181 104.738C258.585 105.152 263.141 105.002 260.012 105.426C256.631 104.947 255.346 105.273 256.524 104.648C250.836 104.258 250.204 103.815 246.343 103.407C253.218 103.683 267.654 103.04 276.379 103.843C281.189 104.595 278.271 105.621 278.291 106.706C277.566 106.961 265.099 107.082 264.629 106.363V106.363ZM255.443 107.446C252.741 107.5 251.916 107.455 250.257 107.366C250.705 106.995 253.26 107.429 255.443 107.446ZM317.531 99.2733C318.047 99.4293 322.934 99.6206 321.884 99.8871L314.474 99.6912C316.213 99.665 316.826 99.4771 317.531 99.2733V99.2733ZM311.224 99.6092L314.474 99.6912C313.39 99.7013 312.306 99.6739 311.224 99.6092V99.6092Z" fill="#A19882"/>
<path d="M317.884 99.1776L317.531 99.2732C317.427 99.2414 317.446 99.2084 317.884 99.1776ZM414.283 108.752C414.77 108.619 410.341 113.412 408.193 115.732C409.882 113.774 412.149 111.052 414.283 108.752ZM377.996 147.201L379.912 144.685C379.271 145.616 378.94 146.091 377.996 147.201ZM414.838 116.754C414.934 116.727 415.116 116.588 415.351 116.386C415.122 116.595 414.948 116.722 414.838 116.754ZM415.351 116.386C416.914 114.956 421.026 109.728 422.825 108.214L422.555 108.358L425.606 105.202C422.855 108.285 417.154 114.841 415.351 116.386Z" fill="#A19882"/>
</svg>
